<mxfile host="app.diagrams.net" modified="2023-12-03T18:38:41.624Z" agent="Mozilla/5.0 (Windows NT 10.0; Win64; x64; rv:120.0) Gecko/20100101 Firefox/120.0" etag="Zx31gUEMHgfe6rnA5F0F" version="22.1.5" type="github">
  <diagram name="Seite-1" id="O6X6owak-KxjnDkndxaL">
    <mxGraphModel dx="2261" dy="1923" grid="1" gridSize="10" guides="1" tooltips="1" connect="1" arrows="1" fold="1" page="1" pageScale="1" pageWidth="827" pageHeight="1169" math="0" shadow="0">
      <root>
        <mxCell id="0" />
        <mxCell id="1" parent="0" />
        <mxCell id="pdj2C71loEkQCJ0KdB5L-4" value="&lt;b&gt;Kunde&lt;/b&gt;" style="rounded=0;whiteSpace=wrap;html=1;" parent="1" vertex="1">
          <mxGeometry x="320" y="-240" width="200" height="40" as="geometry" />
        </mxCell>
        <mxCell id="pdj2C71loEkQCJ0KdB5L-5" value="" style="endArrow=classic;html=1;rounded=0;exitX=0.5;exitY=1;exitDx=0;exitDy=0;" parent="1" source="pdj2C71loEkQCJ0KdB5L-4" target="pdj2C71loEkQCJ0KdB5L-6" edge="1">
          <mxGeometry width="50" height="50" relative="1" as="geometry">
            <mxPoint x="450" y="210" as="sourcePoint" />
            <mxPoint x="460" y="-40" as="targetPoint" />
          </mxGeometry>
        </mxCell>
        <mxCell id="pdj2C71loEkQCJ0KdB5L-46" value="" style="edgeStyle=orthogonalEdgeStyle;rounded=0;orthogonalLoop=1;jettySize=auto;html=1;fontSize=12;entryX=0.5;entryY=0;entryDx=0;entryDy=0;" parent="1" source="pdj2C71loEkQCJ0KdB5L-6" target="pdj2C71loEkQCJ0KdB5L-12" edge="1">
          <mxGeometry relative="1" as="geometry">
            <mxPoint x="930" y="-210" as="targetPoint" />
          </mxGeometry>
        </mxCell>
        <mxCell id="pdj2C71loEkQCJ0KdB5L-48" value="Nicht für Ltd. entschieden" style="edgeLabel;html=1;align=center;verticalAlign=middle;resizable=0;points=[];fontSize=12;" parent="pdj2C71loEkQCJ0KdB5L-46" vertex="1" connectable="0">
          <mxGeometry x="-0.1111" y="3" relative="1" as="geometry">
            <mxPoint y="-7" as="offset" />
          </mxGeometry>
        </mxCell>
        <mxCell id="GEYt-02kJldXufyOwrVy-22" value="" style="edgeStyle=orthogonalEdgeStyle;rounded=0;orthogonalLoop=1;jettySize=auto;html=1;" edge="1" parent="1" source="pdj2C71loEkQCJ0KdB5L-6" target="GEYt-02kJldXufyOwrVy-12">
          <mxGeometry relative="1" as="geometry" />
        </mxCell>
        <mxCell id="GEYt-02kJldXufyOwrVy-23" value="&lt;b style=&quot;font-size: 13px;&quot;&gt;für Ltd.&lt;br&gt;entschieden&lt;/b&gt;" style="edgeLabel;html=1;align=center;verticalAlign=middle;resizable=0;points=[];" vertex="1" connectable="0" parent="GEYt-02kJldXufyOwrVy-22">
          <mxGeometry x="0.15" y="-1" relative="1" as="geometry">
            <mxPoint x="1" y="-6" as="offset" />
          </mxGeometry>
        </mxCell>
        <mxCell id="pdj2C71loEkQCJ0KdB5L-6" value="&lt;div&gt;&lt;b&gt;Videokonferenz halten&lt;br&gt;&lt;/b&gt;&lt;/div&gt;&lt;div align=&quot;left&quot;&gt;&lt;b&gt;- &lt;/b&gt;Firma vorstellen&lt;/div&gt;&lt;div align=&quot;left&quot;&gt;- Vorteile Ltd.&lt;/div&gt;&lt;div align=&quot;left&quot;&gt;- Nachteile Ltd.&lt;/div&gt;&lt;div align=&quot;left&quot;&gt;- Steuersparkonzepte&lt;/div&gt;&lt;div align=&quot;left&quot;&gt;- Büroservice&lt;/div&gt;&lt;div align=&quot;left&quot;&gt;- Kosten &amp;amp; Vertragslaufzeiten&lt;br&gt;&lt;/div&gt;&lt;div align=&quot;left&quot;&gt;- Ablauf Ltd.-Eröffnung&lt;/div&gt;&lt;div align=&quot;left&quot;&gt;- Provisionsprogramm&lt;/div&gt;" style="rounded=0;whiteSpace=wrap;html=1;" parent="1" vertex="1">
          <mxGeometry x="320" y="-160" width="200" height="160" as="geometry" />
        </mxCell>
        <mxCell id="pdj2C71loEkQCJ0KdB5L-12" value="Weiter Werben: Ltd. und Bitcoin" style="rounded=0;whiteSpace=wrap;html=1;" parent="1" vertex="1">
          <mxGeometry x="560" y="-40" width="200" height="40" as="geometry" />
        </mxCell>
        <mxCell id="pdj2C71loEkQCJ0KdB5L-72" value="" style="edgeStyle=orthogonalEdgeStyle;rounded=0;orthogonalLoop=1;jettySize=auto;html=1;fontSize=12;fontColor=#000000;" parent="1" source="pdj2C71loEkQCJ0KdB5L-31" target="pdj2C71loEkQCJ0KdB5L-68" edge="1">
          <mxGeometry relative="1" as="geometry">
            <Array as="points">
              <mxPoint x="510" y="820" />
              <mxPoint x="420" y="820" />
            </Array>
          </mxGeometry>
        </mxCell>
        <mxCell id="pdj2C71loEkQCJ0KdB5L-31" value="&lt;div&gt;&lt;b&gt;1. Kunden-Rechnung erstellen&lt;/b&gt;&lt;/div&gt;&lt;div align=&quot;left&quot;&gt;- Limited-Grundkapital&lt;br&gt;&lt;/div&gt;&lt;div align=&quot;left&quot;&gt;- Grünsungsgebühr&lt;br&gt;&lt;/div&gt;&lt;div align=&quot;left&quot;&gt;- [Treuhänder-Gründungsgebühr]&lt;b&gt;&lt;br&gt;&lt;/b&gt;&lt;/div&gt;" style="rounded=0;whiteSpace=wrap;html=1;" parent="1" vertex="1">
          <mxGeometry x="440" y="720" width="240" height="80" as="geometry" />
        </mxCell>
        <mxCell id="pdj2C71loEkQCJ0KdB5L-41" value="&lt;div align=&quot;center&quot;&gt;&lt;b&gt;&lt;font style=&quot;font-size: 13px;&quot;&gt;&lt;font style=&quot;font-size: 14px;&quot;&gt;&lt;font style=&quot;font-size: 13px;&quot;&gt;&lt;font style=&quot;font-size: 12px;&quot;&gt;E-Mail an Kunden verschicken&lt;br&gt;&lt;/font&gt;&lt;/font&gt;&lt;/font&gt;&lt;/font&gt;&lt;/b&gt;&lt;/div&gt;&lt;div align=&quot;center&quot;&gt;&lt;b&gt;&lt;font style=&quot;font-size: 13px;&quot;&gt;&lt;font style=&quot;font-size: 14px;&quot;&gt;&lt;font style=&quot;font-size: 13px;&quot;&gt;&lt;font style=&quot;font-size: 12px;&quot;&gt;&lt;br&gt;&lt;/font&gt;&lt;/font&gt;&lt;/font&gt;&lt;/font&gt;&lt;/b&gt;&lt;/div&gt;&lt;div align=&quot;left&quot;&gt;&lt;u&gt;&lt;b&gt;Kunden&lt;/b&gt;-Daten erfragen&lt;/u&gt;&lt;/div&gt;&lt;div align=&quot;left&quot;&gt;- Vorname&lt;/div&gt;&lt;div align=&quot;left&quot;&gt;- Nachname&lt;/div&gt;&lt;div align=&quot;left&quot;&gt;- Adresse&lt;/div&gt;&lt;div align=&quot;left&quot;&gt;- Handy-Nr. (Telegram)&lt;/div&gt;&lt;div align=&quot;left&quot;&gt;&lt;br&gt;&lt;/div&gt;&lt;div align=&quot;left&quot;&gt;&lt;u&gt;&lt;b&gt;Kunden&lt;/b&gt;-Dokumente anfordern:&lt;/u&gt;&lt;/div&gt;&lt;div align=&quot;left&quot;&gt;- Scan/Foto Personalausweis&lt;/div&gt;&lt;div align=&quot;left&quot;&gt;- Wohnungsnachweis (Stromrechnung etc.)&lt;/div&gt;&lt;div align=&quot;left&quot;&gt;&lt;br&gt;&lt;/div&gt;&lt;div align=&quot;left&quot;&gt;&lt;u&gt;&lt;b&gt;Firmen&lt;/b&gt;-Daten anfordern:&lt;/u&gt;&lt;/div&gt;&lt;div align=&quot;left&quot;&gt;- Firmenname&lt;/div&gt;&lt;div align=&quot;left&quot;&gt;- Ltd. oder Limited&lt;/div&gt;&lt;div align=&quot;left&quot;&gt;- Grundkapital (100€ Standard)&lt;/div&gt;&lt;div align=&quot;left&quot;&gt;- Firmensitz: London oder Derby&lt;br&gt;&lt;/div&gt;" style="rounded=0;whiteSpace=wrap;html=1;fillColor=#d5e8d4;strokeColor=#82b366;verticalAlign=top;" parent="1" vertex="1">
          <mxGeometry x="80" y="240" width="200" height="400" as="geometry" />
        </mxCell>
        <mxCell id="pdj2C71loEkQCJ0KdB5L-52" value="&lt;div&gt;&lt;b&gt;Kundendaten an Boffix&lt;/b&gt;&lt;/div&gt;&lt;div&gt;&lt;b&gt;weitergeben&lt;/b&gt;&lt;/div&gt;&lt;div&gt;&lt;br&gt;&lt;/div&gt;&lt;div align=&quot;left&quot;&gt;&lt;u&gt;Aufgaben Boffix&lt;br&gt;&lt;/u&gt;&lt;/div&gt;&lt;div align=&quot;left&quot;&gt;- Brifekastenschild&lt;/div&gt;&lt;div align=&quot;left&quot;&gt;- Ltd. gründen&lt;/div&gt;&lt;div align=&quot;left&quot;&gt;- UStId. anfordern&lt;br&gt;&lt;/div&gt;" style="whiteSpace=wrap;html=1;rounded=0;" parent="1" vertex="1">
          <mxGeometry x="600" y="880" width="160" height="120" as="geometry" />
        </mxCell>
        <mxCell id="pdj2C71loEkQCJ0KdB5L-54" value="&lt;div&gt;&lt;b&gt;Mit Kunden &lt;br&gt;&lt;/b&gt;&lt;/div&gt;&lt;div&gt;&lt;b&gt;Konto eröffnen&lt;/b&gt;&lt;/div&gt;" style="whiteSpace=wrap;html=1;rounded=0;" parent="1" vertex="1">
          <mxGeometry x="600" y="1040" width="160" height="40" as="geometry" />
        </mxCell>
        <mxCell id="pdj2C71loEkQCJ0KdB5L-57" value="&lt;div&gt;&lt;b&gt;Kunde in unserer&lt;/b&gt;&lt;/div&gt;&lt;div&gt;&lt;b&gt;Datenbank anlegen&lt;/b&gt;&lt;/div&gt;&lt;div&gt;&lt;br&gt;&lt;/div&gt;&lt;div&gt;für automatische Rechnungserstellung&lt;b&gt;&lt;br&gt;&lt;/b&gt;&lt;/div&gt;" style="rounded=0;whiteSpace=wrap;html=1;fontSize=12;fontColor=#ff0000;" parent="1" vertex="1">
          <mxGeometry y="900" width="240" height="80" as="geometry" />
        </mxCell>
        <mxCell id="pdj2C71loEkQCJ0KdB5L-58" value="&lt;b&gt;Kunde in QuickBooks anlegen, ggf. mit Konto&amp;nbsp; des Kunden verknüpfen&lt;/b&gt;" style="rounded=0;whiteSpace=wrap;html=1;fontSize=12;fontColor=#FF0000;" parent="1" vertex="1">
          <mxGeometry x="80" y="1020" width="160" height="60" as="geometry" />
        </mxCell>
        <mxCell id="pdj2C71loEkQCJ0KdB5L-65" value="" style="shape=flexArrow;endArrow=classic;html=1;rounded=0;fontSize=12;fontColor=#FF0000;endWidth=42;endSize=8.33;width=26;" parent="1" edge="1">
          <mxGeometry width="50" height="50" relative="1" as="geometry">
            <mxPoint x="414" y="1110" as="sourcePoint" />
            <mxPoint x="414" y="1220" as="targetPoint" />
          </mxGeometry>
        </mxCell>
        <mxCell id="pdj2C71loEkQCJ0KdB5L-89" value="Wenn alleserledigt ist" style="edgeLabel;html=1;align=center;verticalAlign=middle;resizable=0;points=[];fontSize=12;fontColor=#000000;fontStyle=1" parent="pdj2C71loEkQCJ0KdB5L-65" vertex="1" connectable="0">
          <mxGeometry x="-0.2364" y="-3" relative="1" as="geometry">
            <mxPoint x="3" y="-62" as="offset" />
          </mxGeometry>
        </mxCell>
        <mxCell id="pdj2C71loEkQCJ0KdB5L-67" value="&lt;div&gt;&lt;b&gt;&lt;font color=&quot;#000000&quot;&gt;Rechnungen per Telegram / WhatsApp &lt;br&gt;&lt;/font&gt;&lt;/b&gt;&lt;/div&gt;&lt;div&gt;&lt;b&gt;&lt;font color=&quot;#000000&quot;&gt;einsammeln und mit Quickbooks abgleichen&lt;/font&gt;&lt;/b&gt;&lt;/div&gt;" style="rounded=0;whiteSpace=wrap;html=1;fontSize=12;fontColor=#FF0000;" parent="1" vertex="1">
          <mxGeometry x="234" y="1230" width="360" height="80" as="geometry" />
        </mxCell>
        <mxCell id="pdj2C71loEkQCJ0KdB5L-74" value="" style="edgeStyle=orthogonalEdgeStyle;rounded=0;orthogonalLoop=1;jettySize=auto;html=1;fontSize=12;fontColor=#000000;" parent="1" source="pdj2C71loEkQCJ0KdB5L-68" target="pdj2C71loEkQCJ0KdB5L-73" edge="1">
          <mxGeometry relative="1" as="geometry" />
        </mxCell>
        <mxCell id="pdj2C71loEkQCJ0KdB5L-68" value="&lt;div&gt;&lt;b&gt;Vertag &amp;amp; Rechung&amp;nbsp;&lt;/b&gt;&lt;/div&gt;&lt;div&gt;&lt;b&gt;Kunden zuschicken&lt;/b&gt;&lt;/div&gt;" style="rounded=0;whiteSpace=wrap;html=1;fontSize=12;fontColor=#000000;" parent="1" vertex="1">
          <mxGeometry x="340" y="840" width="160" height="40" as="geometry" />
        </mxCell>
        <mxCell id="pdj2C71loEkQCJ0KdB5L-77" value="" style="edgeStyle=orthogonalEdgeStyle;rounded=0;orthogonalLoop=1;jettySize=auto;html=1;fontSize=14;fontColor=#FF8000;" parent="1" source="pdj2C71loEkQCJ0KdB5L-73" target="pdj2C71loEkQCJ0KdB5L-57" edge="1">
          <mxGeometry relative="1" as="geometry" />
        </mxCell>
        <mxCell id="pdj2C71loEkQCJ0KdB5L-79" value="" style="edgeStyle=orthogonalEdgeStyle;rounded=0;orthogonalLoop=1;jettySize=auto;html=1;fontSize=14;fontColor=#FF8000;entryX=1;entryY=0.5;entryDx=0;entryDy=0;" parent="1" source="pdj2C71loEkQCJ0KdB5L-73" target="pdj2C71loEkQCJ0KdB5L-58" edge="1">
          <mxGeometry relative="1" as="geometry">
            <mxPoint x="420" y="1060" as="targetPoint" />
          </mxGeometry>
        </mxCell>
        <mxCell id="pdj2C71loEkQCJ0KdB5L-80" value="" style="edgeStyle=orthogonalEdgeStyle;rounded=0;orthogonalLoop=1;jettySize=auto;html=1;fontSize=14;fontColor=#FF8000;" parent="1" source="pdj2C71loEkQCJ0KdB5L-73" target="pdj2C71loEkQCJ0KdB5L-52" edge="1">
          <mxGeometry relative="1" as="geometry" />
        </mxCell>
        <mxCell id="pdj2C71loEkQCJ0KdB5L-82" value="" style="edgeStyle=orthogonalEdgeStyle;rounded=0;orthogonalLoop=1;jettySize=auto;html=1;fontSize=14;fontColor=#FF8000;entryX=0;entryY=0.5;entryDx=0;entryDy=0;" parent="1" source="pdj2C71loEkQCJ0KdB5L-73" target="pdj2C71loEkQCJ0KdB5L-54" edge="1">
          <mxGeometry relative="1" as="geometry">
            <mxPoint x="420" y="1060" as="targetPoint" />
          </mxGeometry>
        </mxCell>
        <mxCell id="pdj2C71loEkQCJ0KdB5L-73" value="&lt;font style=&quot;font-size: 16px;&quot;&gt;&lt;b style=&quot;&quot;&gt;Wenn Kundenvertrag unterschrieben zurück gekommen ist&lt;br style=&quot;&quot;&gt;&lt;/b&gt;&lt;/font&gt;" style="rounded=0;whiteSpace=wrap;html=1;fontSize=14;fontColor=#FF8000;" parent="1" vertex="1">
          <mxGeometry x="320" y="900" width="200" height="80" as="geometry" />
        </mxCell>
        <mxCell id="pdj2C71loEkQCJ0KdB5L-84" value="&lt;font style=&quot;font-size: 13px;&quot;&gt;&lt;b&gt;&lt;font style=&quot;font-size: 13px;&quot; color=&quot;#000000&quot;&gt;&lt;font style=&quot;font-size: 12px;&quot;&gt;ToDo&lt;/font&gt;&lt;/font&gt;&lt;/b&gt;&lt;/font&gt;" style="rounded=0;whiteSpace=wrap;html=1;fontSize=14;fontColor=#FF8000;" parent="1" vertex="1">
          <mxGeometry x="-440" y="40" width="120" height="40" as="geometry" />
        </mxCell>
        <mxCell id="pdj2C71loEkQCJ0KdB5L-85" value="&lt;font style=&quot;font-size: 15px;&quot;&gt;&lt;font style=&quot;font-size: 14px;&quot;&gt;&lt;font style=&quot;font-size: 13px;&quot;&gt;&lt;font style=&quot;font-size: 12px;&quot;&gt;Presentation erstellen&lt;/font&gt;&lt;/font&gt;&lt;/font&gt;&lt;/font&gt;" style="rounded=0;whiteSpace=wrap;html=1;fontSize=16;fontColor=#000000;" parent="1" vertex="1">
          <mxGeometry x="-440" y="120" width="120" height="160" as="geometry" />
        </mxCell>
        <mxCell id="pdj2C71loEkQCJ0KdB5L-86" value="&lt;div&gt;&lt;font style=&quot;font-size: 15px;&quot;&gt;&lt;font style=&quot;font-size: 14px;&quot;&gt;&lt;font style=&quot;font-size: 13px;&quot;&gt;&lt;font style=&quot;font-size: 12px;&quot;&gt;Kundendaten einsammeln&lt;/font&gt;&lt;/font&gt;&lt;/font&gt;&lt;/font&gt;&lt;/div&gt;&lt;div&gt;&lt;font style=&quot;font-size: 15px;&quot;&gt;&lt;font style=&quot;font-size: 14px;&quot;&gt;&lt;font style=&quot;font-size: 13px;&quot;&gt;&lt;font style=&quot;font-size: 12px;&quot;&gt;&lt;br&gt;&lt;/font&gt;&lt;/font&gt;&lt;/font&gt;&lt;/font&gt;&lt;/div&gt;&lt;div&gt;&lt;font style=&quot;font-size: 15px;&quot;&gt;&lt;font style=&quot;font-size: 14px;&quot;&gt;&lt;font style=&quot;font-size: 13px;&quot;&gt;&lt;font style=&quot;font-size: 12px;&quot;&gt;Wie ???&lt;/font&gt;&lt;/font&gt;&lt;/font&gt;&lt;/font&gt;&lt;/div&gt;&lt;div&gt;&lt;font style=&quot;font-size: 15px;&quot;&gt;&lt;font style=&quot;font-size: 14px;&quot;&gt;&lt;font style=&quot;font-size: 13px;&quot;&gt;&lt;font style=&quot;font-size: 12px;&quot;&gt;&lt;br&gt;&lt;/font&gt;&lt;/font&gt;&lt;/font&gt;&lt;/font&gt;&lt;/div&gt;&lt;div&gt;&lt;font style=&quot;font-size: 15px;&quot;&gt;&lt;font style=&quot;font-size: 14px;&quot;&gt;&lt;font style=&quot;font-size: 13px;&quot;&gt;&lt;font style=&quot;font-size: 12px;&quot;&gt;Oder E-Mail erstellen&lt;br&gt;&lt;/font&gt;&lt;/font&gt;&lt;/font&gt;&lt;/font&gt;&lt;/div&gt;" style="rounded=0;whiteSpace=wrap;html=1;fontSize=16;fontColor=#000000;" parent="1" vertex="1">
          <mxGeometry x="-440" y="360" width="120" height="200" as="geometry" />
        </mxCell>
        <mxCell id="pdj2C71loEkQCJ0KdB5L-87" value="In Word ???" style="rounded=0;whiteSpace=wrap;html=1;fontSize=12;fontColor=#000000;" parent="1" vertex="1">
          <mxGeometry x="-440" y="600" width="120" height="40" as="geometry" />
        </mxCell>
        <mxCell id="pdj2C71loEkQCJ0KdB5L-88" value="&lt;div&gt;Digital oder Papier&lt;/div&gt;&lt;div&gt;Mail oder Post&lt;br&gt;&lt;/div&gt;" style="rounded=0;whiteSpace=wrap;html=1;fontSize=12;fontColor=#000000;" parent="1" vertex="1">
          <mxGeometry x="-440" y="680" width="120" height="40" as="geometry" />
        </mxCell>
        <mxCell id="GEYt-02kJldXufyOwrVy-5" value="" style="edgeStyle=orthogonalEdgeStyle;rounded=0;orthogonalLoop=1;jettySize=auto;html=1;entryX=0.5;entryY=0;entryDx=0;entryDy=0;" edge="1" parent="1" source="GEYt-02kJldXufyOwrVy-1" target="pdj2C71loEkQCJ0KdB5L-68">
          <mxGeometry relative="1" as="geometry">
            <Array as="points">
              <mxPoint x="330" y="820" />
              <mxPoint x="420" y="820" />
            </Array>
          </mxGeometry>
        </mxCell>
        <mxCell id="GEYt-02kJldXufyOwrVy-1" value="&lt;div&gt;&lt;b&gt;Kunden-Vertrag erstellen&lt;/b&gt;&lt;/div&gt;&lt;div align=&quot;left&quot;&gt;- Standard-Dienstleistungen&lt;/div&gt;&lt;div align=&quot;left&quot;&gt;- [Treuhänder-Service fremd]&lt;b&gt;&lt;br&gt;&lt;/b&gt;&lt;/div&gt;&lt;div align=&quot;left&quot;&gt;&lt;div align=&quot;left&quot;&gt;- [Treuhänder-Service selbst]&lt;/div&gt;&lt;div align=&quot;left&quot;&gt;- [Büro in London]&lt;b&gt;&lt;br&gt;&lt;/b&gt;&lt;/div&gt;&lt;/div&gt;" style="rounded=0;whiteSpace=wrap;html=1;" vertex="1" parent="1">
          <mxGeometry x="160" y="720" width="240" height="80" as="geometry" />
        </mxCell>
        <mxCell id="GEYt-02kJldXufyOwrVy-7" value="&lt;div align=&quot;center&quot;&gt;&lt;b&gt;&lt;font style=&quot;font-size: 13px;&quot;&gt;&lt;font style=&quot;font-size: 14px;&quot;&gt;&lt;font style=&quot;font-size: 13px;&quot;&gt;&lt;font style=&quot;font-size: 12px;&quot;&gt;E-Mail an Kunden verschicken&lt;br&gt;&lt;/font&gt;&lt;/font&gt;&lt;/font&gt;&lt;/font&gt;&lt;/b&gt;&lt;/div&gt;&lt;div align=&quot;center&quot;&gt;&lt;b&gt;&lt;font style=&quot;font-size: 13px;&quot;&gt;&lt;font style=&quot;font-size: 14px;&quot;&gt;&lt;font style=&quot;font-size: 13px;&quot;&gt;&lt;font style=&quot;font-size: 12px;&quot;&gt;&lt;br&gt;&lt;/font&gt;&lt;/font&gt;&lt;/font&gt;&lt;/font&gt;&lt;/b&gt;&lt;/div&gt;&lt;div align=&quot;left&quot;&gt;&lt;u&gt;&lt;b&gt;Kunden&lt;/b&gt;-Daten erfragen&lt;/u&gt;&lt;/div&gt;&lt;div align=&quot;left&quot;&gt;- Vorname&lt;/div&gt;&lt;div align=&quot;left&quot;&gt;- Nachname&lt;/div&gt;&lt;div align=&quot;left&quot;&gt;- Adresse&lt;/div&gt;&lt;div align=&quot;left&quot;&gt;- Handy-Nr. (WhatsApp / Telegram)&lt;/div&gt;&lt;div align=&quot;left&quot;&gt;&lt;br&gt;&lt;/div&gt;&lt;div align=&quot;left&quot;&gt;&lt;u&gt;&lt;b&gt;Treuhänder&lt;/b&gt;-Daten erfragen&lt;/u&gt;&lt;div align=&quot;left&quot;&gt;- Vorname&lt;/div&gt;&lt;div align=&quot;left&quot;&gt;- Nachname&lt;/div&gt;&lt;div align=&quot;left&quot;&gt;- Adresse&lt;/div&gt;&lt;div align=&quot;left&quot;&gt;- Handy-Nr. (WhatsApp / Telegram)&lt;/div&gt;&lt;/div&gt;&lt;div align=&quot;left&quot;&gt;&lt;br&gt;&lt;/div&gt;&lt;div align=&quot;left&quot;&gt;&lt;u&gt;&lt;b&gt;Treuhänder&lt;/b&gt;-Dokumente anfordern:&lt;/u&gt;&lt;/div&gt;&lt;div align=&quot;left&quot;&gt;- Scan/Foto Personalausweis&lt;/div&gt;&lt;div align=&quot;left&quot;&gt;- Wohnungsnachweis&lt;/div&gt;&lt;div align=&quot;left&quot;&gt;(Stromrechnung etc.)&lt;/div&gt;&lt;div align=&quot;left&quot;&gt;&lt;br&gt;&lt;/div&gt;&lt;div align=&quot;left&quot;&gt;&lt;u&gt;&lt;b&gt;Firmen&lt;/b&gt;-Daten anfordern:&lt;/u&gt;&lt;/div&gt;&lt;div align=&quot;left&quot;&gt;- Firmenname&lt;/div&gt;&lt;div align=&quot;left&quot;&gt;- Ltd. oder Limited&lt;/div&gt;&lt;div align=&quot;left&quot;&gt;- Grundkapital (100€ Standard)&lt;/div&gt;&lt;div align=&quot;left&quot;&gt;- Firmensitz: London oder Derby&lt;/div&gt;" style="rounded=0;whiteSpace=wrap;html=1;fillColor=#dae8fc;strokeColor=#6c8ebf;verticalAlign=top;" vertex="1" parent="1">
          <mxGeometry x="560" y="240" width="200" height="400" as="geometry" />
        </mxCell>
        <mxCell id="GEYt-02kJldXufyOwrVy-12" value="&lt;font style=&quot;font-size: 13px;&quot;&gt;&lt;b&gt;Treuhänder&lt;/b&gt;&lt;/font&gt;" style="strokeWidth=2;html=1;shape=mxgraph.flowchart.decision;whiteSpace=wrap;fillColor=#f5f5f5;fontColor=#333333;strokeColor=#666666;" vertex="1" parent="1">
          <mxGeometry x="360" y="80" width="120" height="120" as="geometry" />
        </mxCell>
        <mxCell id="GEYt-02kJldXufyOwrVy-20" value="" style="edgeStyle=segmentEdgeStyle;endArrow=classic;html=1;curved=0;rounded=0;endSize=8;startSize=8;exitX=0;exitY=0.5;exitDx=0;exitDy=0;exitPerimeter=0;entryX=0.5;entryY=0;entryDx=0;entryDy=0;fontColor=#008000;fillColor=#d5e8d4;strokeColor=#82b366;" edge="1" parent="1" source="GEYt-02kJldXufyOwrVy-12" target="pdj2C71loEkQCJ0KdB5L-41">
          <mxGeometry width="50" height="50" relative="1" as="geometry">
            <mxPoint x="250" y="280" as="sourcePoint" />
            <mxPoint x="300" y="230" as="targetPoint" />
          </mxGeometry>
        </mxCell>
        <mxCell id="GEYt-02kJldXufyOwrVy-24" value="&lt;b style=&quot;font-size: 13px;&quot;&gt;KEINER&lt;/b&gt;" style="edgeLabel;html=1;align=center;verticalAlign=middle;resizable=0;points=[];fontColor=#008000;" vertex="1" connectable="0" parent="GEYt-02kJldXufyOwrVy-20">
          <mxGeometry x="-0.56" y="-2" relative="1" as="geometry">
            <mxPoint x="-18" y="-8" as="offset" />
          </mxGeometry>
        </mxCell>
        <mxCell id="GEYt-02kJldXufyOwrVy-26" value="" style="edgeStyle=segmentEdgeStyle;endArrow=classic;html=1;curved=0;rounded=0;endSize=8;startSize=8;exitX=1;exitY=0.5;exitDx=0;exitDy=0;exitPerimeter=0;entryX=0.5;entryY=0;entryDx=0;entryDy=0;fillColor=#dae8fc;strokeColor=#6c8ebf;" edge="1" parent="1" source="GEYt-02kJldXufyOwrVy-12" target="GEYt-02kJldXufyOwrVy-7">
          <mxGeometry width="50" height="50" relative="1" as="geometry">
            <mxPoint x="520" y="140" as="sourcePoint" />
            <mxPoint x="570" y="90" as="targetPoint" />
          </mxGeometry>
        </mxCell>
        <mxCell id="GEYt-02kJldXufyOwrVy-27" value="&lt;b&gt;&lt;font style=&quot;font-size: 13px;&quot;&gt;EIGENER&lt;/font&gt;&lt;/b&gt;" style="edgeLabel;html=1;align=center;verticalAlign=middle;resizable=0;points=[];labelBackgroundColor=#ffffff;fontColor=#0080ff;" vertex="1" connectable="0" parent="GEYt-02kJldXufyOwrVy-26">
          <mxGeometry x="0.0083" y="-2" relative="1" as="geometry">
            <mxPoint x="-41" y="-12" as="offset" />
          </mxGeometry>
        </mxCell>
        <mxCell id="GEYt-02kJldXufyOwrVy-28" value="&lt;div align=&quot;center&quot;&gt;&lt;b&gt;&lt;font style=&quot;font-size: 13px;&quot;&gt;&lt;font style=&quot;font-size: 14px;&quot;&gt;&lt;font style=&quot;font-size: 13px;&quot;&gt;&lt;font style=&quot;font-size: 12px;&quot;&gt;E-Mail an Kunden verschicken&lt;/font&gt;&lt;/font&gt;&lt;/font&gt;&lt;/font&gt;&lt;/b&gt;&lt;/div&gt;&lt;div align=&quot;center&quot;&gt;&lt;b&gt;&lt;font style=&quot;font-size: 13px;&quot;&gt;&lt;font style=&quot;font-size: 14px;&quot;&gt;&lt;font style=&quot;font-size: 13px;&quot;&gt;&lt;font style=&quot;font-size: 12px;&quot;&gt;&lt;br&gt;&lt;/font&gt;&lt;/font&gt;&lt;/font&gt;&lt;/font&gt;&lt;/b&gt;&lt;/div&gt;&lt;div align=&quot;left&quot;&gt;&lt;u&gt;&lt;b&gt;Kunden&lt;/b&gt;-Daten erfragen&lt;/u&gt;&lt;/div&gt;&lt;div align=&quot;left&quot;&gt;- Vorname&lt;/div&gt;&lt;div align=&quot;left&quot;&gt;- Nachname&lt;/div&gt;&lt;div align=&quot;left&quot;&gt;- Adresse&lt;/div&gt;&lt;div align=&quot;left&quot;&gt;- Handy-Nr. (WhatsApp / Telegram)&lt;/div&gt;&lt;br&gt;&lt;div align=&quot;left&quot;&gt;&lt;u&gt;&lt;b&gt;Firmen&lt;/b&gt;-Daten anfordern:&lt;/u&gt;&lt;/div&gt;&lt;div align=&quot;left&quot;&gt;- Firmenname&lt;/div&gt;&lt;div align=&quot;left&quot;&gt;- Ltd. oder Limited&lt;/div&gt;&lt;div align=&quot;left&quot;&gt;- Grundkapital (100€ Standard)&lt;/div&gt;&lt;div align=&quot;left&quot;&gt;- Firmensitz: London oder Derby&lt;/div&gt;" style="rounded=0;whiteSpace=wrap;html=1;fillColor=#f8cecc;strokeColor=#b85450;verticalAlign=top;" vertex="1" parent="1">
          <mxGeometry x="320" y="240" width="200" height="400" as="geometry" />
        </mxCell>
        <mxCell id="GEYt-02kJldXufyOwrVy-29" value="" style="edgeStyle=segmentEdgeStyle;endArrow=classic;html=1;curved=0;rounded=0;endSize=8;startSize=8;exitX=0.5;exitY=1;exitDx=0;exitDy=0;exitPerimeter=0;entryX=0.5;entryY=0;entryDx=0;entryDy=0;fillColor=#f8cecc;strokeColor=#b85450;" edge="1" parent="1" source="GEYt-02kJldXufyOwrVy-12" target="GEYt-02kJldXufyOwrVy-28">
          <mxGeometry width="50" height="50" relative="1" as="geometry">
            <mxPoint x="250" y="280" as="sourcePoint" />
            <mxPoint x="300" y="230" as="targetPoint" />
          </mxGeometry>
        </mxCell>
        <mxCell id="GEYt-02kJldXufyOwrVy-30" value="&lt;b&gt;&lt;font style=&quot;font-size: 13px;&quot;&gt;FREMDER (Wir)&lt;/font&gt;&lt;/b&gt;" style="edgeLabel;html=1;align=center;verticalAlign=middle;resizable=0;points=[];fontColor=#ff8080;" vertex="1" connectable="0" parent="GEYt-02kJldXufyOwrVy-29">
          <mxGeometry x="-0.15" y="-1" relative="1" as="geometry">
            <mxPoint as="offset" />
          </mxGeometry>
        </mxCell>
      </root>
    </mxGraphModel>
  </diagram>
</mxfile>
